<?xml version="1.0" encoding="iso-8859-1"?>
<!-- Generator: Adobe Illustrator 16.0.0, SVG Export Plug-In . SVG Version: 6.00 Build 0)  -->
<!DOCTYPE svg PUBLIC "-//W3C//DTD SVG 1.1//EN" "http://www.w3.org/Graphics/SVG/1.1/DTD/svg11.dtd">
<svg version="1.1" id="Capa_1" xmlns="http://www.w3.org/2000/svg" xmlns:xlink="http://www.w3.org/1999/xlink" x="0px" y="0px"
	 width="229.6px" height="229.6px" viewBox="0 0 229.6 229.6" style="enable-background:new 0 0 229.6 229.6;" xml:space="preserve"
	>
<g>
	<path d="M114.8,0C51.7,0,0,51.6,0,114.8s51.7,114.8,114.8,114.8c63.1,0,114.8-51.7,114.8-114.8C229.6,51.7,177.899,0,114.8,0z
		 M114.8,191.3c-5.7,0-13.4,0-19.1-1.9c32.5-7.6,57.4-38.199,57.4-74.6c0-36.4-24.899-65-57.4-74.6c5.7-1.9,13.4-1.9,19.1-1.9
		c42.1,0,76.5,34.4,76.5,76.5C191.3,156.899,156.899,191.3,114.8,191.3z"/>
</g>
<g>
</g>
<g>
</g>
<g>
</g>
<g>
</g>
<g>
</g>
<g>
</g>
<g>
</g>
<g>
</g>
<g>
</g>
<g>
</g>
<g>
</g>
<g>
</g>
<g>
</g>
<g>
</g>
<g>
</g>
</svg>
